<?xml version="1.0" encoding="UTF-8" standalone="no"?>
<svg xmlns="http://www.w3.org/2000/svg" version="1.1" style="isolation: isolate;"
     viewBox="-16 -17.6 32 32" height="500pt" width="500pt">
<g transform="rotate(0.0)" fill="#ffed00"
   style="mix-blend-mode: multiply; opacity: 0.9;">
<circle cx="-2" cy="-14" r="0.48"/>
<circle cx="0" cy="-14" r="0.75"/>
<circle cx="2" cy="-14" r="0.48"/>
<circle cx="-4" cy="-12" r="1.03"/>
<circle cx="-2" cy="-12" r="1.16"/>
<circle cx="0" cy="-12" r="1.16"/>
<circle cx="2" cy="-12" r="1.16"/>
<circle cx="4" cy="-12" r="1.03"/>
<circle cx="-6" cy="-10" r="0.48"/>
<circle cx="-4" cy="-10" r="1.16"/>
<circle cx="-2" cy="-10" r="1.16"/>
<circle cx="0" cy="-10" r="1.16"/>
<circle cx="2" cy="-10" r="1.16"/>
<circle cx="4" cy="-10" r="1.16"/>
<circle cx="6" cy="-10" r="0.48"/>
<circle cx="-6" cy="-8" r="0.75"/>
<circle cx="-4" cy="-8" r="1.16"/>
<circle cx="-2" cy="-8" r="1.16"/>
<circle cx="0" cy="-8" r="1.16"/>
<circle cx="2" cy="-8" r="1.16"/>
<circle cx="4" cy="-8" r="1.16"/>
<circle cx="6" cy="-8" r="0.75"/>
<circle cx="-6" cy="-6" r="0.48"/>
<circle cx="-4" cy="-6" r="1.16"/>
<circle cx="-2" cy="-6" r="1.16"/>
<circle cx="0" cy="-6" r="1.16"/>
<circle cx="2" cy="-6" r="1.16"/>
<circle cx="4" cy="-6" r="1.16"/>
<circle cx="6" cy="-6" r="0.48"/>
<circle cx="-4" cy="-4" r="1.03"/>
<circle cx="-2" cy="-4" r="1.16"/>
<circle cx="0" cy="-4" r="1.16"/>
<circle cx="2" cy="-4" r="1.16"/>
<circle cx="4" cy="-4" r="1.03"/>
<circle cx="-8" cy="-2" r="0.56"/>
<circle cx="-6" cy="-2" r="0.58"/>
<circle cx="-2" cy="-2" r="0.48"/>
<circle cx="0" cy="-2" r="0.75"/>
<circle cx="2" cy="-2" r="0.48"/>
<circle cx="-12" cy="0" r="0.31"/>
<circle cx="-10" cy="0" r="0.98"/>
<circle cx="-8" cy="0" r="0.98"/>
<circle cx="-6" cy="0" r="0.98"/>
<circle cx="-4" cy="0" r="0.98"/>
<circle cx="-2" cy="0" r="0.39"/>
<circle cx="-12" cy="2" r="0.98"/>
<circle cx="-10" cy="2" r="0.98"/>
<circle cx="-8" cy="2" r="0.98"/>
<circle cx="-6" cy="2" r="0.98"/>
<circle cx="-4" cy="2" r="0.98"/>
<circle cx="-2" cy="2" r="0.98"/>
<circle cx="-12" cy="4" r="0.98"/>
<circle cx="-10" cy="4" r="0.98"/>
<circle cx="-8" cy="4" r="0.98"/>
<circle cx="-6" cy="4" r="0.98"/>
<circle cx="-4" cy="4" r="0.98"/>
<circle cx="-2" cy="4" r="0.98"/>
<circle cx="-12" cy="6" r="0.98"/>
<circle cx="-10" cy="6" r="0.98"/>
<circle cx="-8" cy="6" r="0.98"/>
<circle cx="-6" cy="6" r="0.98"/>
<circle cx="-4" cy="6" r="0.98"/>
<circle cx="-2" cy="6" r="0.98"/>
<circle cx="-12" cy="8" r="0.31"/>
<circle cx="-10" cy="8" r="0.98"/>
<circle cx="-8" cy="8" r="0.98"/>
<circle cx="-6" cy="8" r="0.98"/>
<circle cx="-4" cy="8" r="0.98"/>
<circle cx="-2" cy="8" r="0.39"/>
<circle cx="-8" cy="10" r="0.56"/>
<circle cx="-6" cy="10" r="0.58"/>
</g>
<g transform="rotate(75.0)" fill="#e6007d"
   style="mix-blend-mode: multiply; opacity: 0.9;">
<circle cx="6" cy="-12" r="0.36"/>
<circle cx="2" cy="-10" r="0.79"/>
<circle cx="4" cy="-10" r="0.91"/>
<circle cx="6" cy="-10" r="0.91"/>
<circle cx="8" cy="-10" r="0.91"/>
<circle cx="10" cy="-10" r="0.49"/>
<circle cx="-8" cy="-8" r="0.25"/>
<circle cx="0" cy="-8" r="0.51"/>
<circle cx="2" cy="-8" r="0.91"/>
<circle cx="4" cy="-8" r="0.91"/>
<circle cx="6" cy="-8" r="0.91"/>
<circle cx="8" cy="-8" r="0.91"/>
<circle cx="10" cy="-8" r="0.91"/>
<circle cx="-12" cy="-6" r="0.28"/>
<circle cx="-10" cy="-6" r="0.36"/>
<circle cx="-8" cy="-6" r="0.36"/>
<circle cx="-6" cy="-6" r="0.36"/>
<circle cx="-4" cy="-6" r="0.36"/>
<circle cx="0" cy="-6" r="0.8"/>
<circle cx="2" cy="-6" r="0.91"/>
<circle cx="4" cy="-6" r="0.91"/>
<circle cx="6" cy="-6" r="0.91"/>
<circle cx="8" cy="-6" r="0.91"/>
<circle cx="10" cy="-6" r="0.91"/>
<circle cx="12" cy="-6" r="0.36"/>
<circle cx="-12" cy="-4" r="0.36"/>
<circle cx="-10" cy="-4" r="0.36"/>
<circle cx="-8" cy="-4" r="0.36"/>
<circle cx="-6" cy="-4" r="0.36"/>
<circle cx="-4" cy="-4" r="0.36"/>
<circle cx="0" cy="-4" r="0.65"/>
<circle cx="2" cy="-4" r="0.91"/>
<circle cx="4" cy="-4" r="0.91"/>
<circle cx="6" cy="-4" r="0.91"/>
<circle cx="8" cy="-4" r="0.91"/>
<circle cx="10" cy="-4" r="0.91"/>
<circle cx="-12" cy="-2" r="0.36"/>
<circle cx="-10" cy="-2" r="0.36"/>
<circle cx="-8" cy="-2" r="0.36"/>
<circle cx="-6" cy="-2" r="0.36"/>
<circle cx="-4" cy="-2" r="0.36"/>
<circle cx="-2" cy="-2" r="0.3"/>
<circle cx="2" cy="-2" r="0.91"/>
<circle cx="4" cy="-2" r="0.91"/>
<circle cx="6" cy="-2" r="0.91"/>
<circle cx="8" cy="-2" r="0.91"/>
<circle cx="10" cy="-2" r="0.79"/>
<circle cx="-12" cy="0" r="0.36"/>
<circle cx="-10" cy="0" r="0.36"/>
<circle cx="-8" cy="0" r="0.36"/>
<circle cx="-6" cy="0" r="0.36"/>
<circle cx="-4" cy="0" r="0.36"/>
<circle cx="4" cy="0" r="0.65"/>
<circle cx="6" cy="0" r="0.8"/>
<circle cx="8" cy="0" r="0.51"/>
<circle cx="-12" cy="2" r="0.26"/>
<circle cx="-10" cy="2" r="0.36"/>
<circle cx="-8" cy="2" r="0.36"/>
<circle cx="-6" cy="2" r="0.36"/>
<circle cx="-4" cy="2" r="0.36"/>
<circle cx="0" cy="2" r="0.62"/>
<circle cx="2" cy="2" r="0.89"/>
<circle cx="4" cy="2" r="0.65"/>
<circle cx="-2" cy="4" r="1.05"/>
<circle cx="0" cy="4" r="1.06"/>
<circle cx="2" cy="4" r="1.06"/>
<circle cx="4" cy="4" r="1.06"/>
<circle cx="6" cy="4" r="1.06"/>
<circle cx="-4" cy="6" r="0.45"/>
<circle cx="-2" cy="6" r="1.06"/>
<circle cx="0" cy="6" r="1.06"/>
<circle cx="2" cy="6" r="1.06"/>
<circle cx="4" cy="6" r="1.06"/>
<circle cx="6" cy="6" r="1.06"/>
<circle cx="8" cy="6" r="0.55"/>
<circle cx="-4" cy="8" r="0.63"/>
<circle cx="-2" cy="8" r="1.06"/>
<circle cx="0" cy="8" r="1.06"/>
<circle cx="2" cy="8" r="1.06"/>
<circle cx="4" cy="8" r="1.06"/>
<circle cx="6" cy="8" r="1.06"/>
<circle cx="8" cy="8" r="0.73"/>
<circle cx="-4" cy="10" r="0.32"/>
<circle cx="-2" cy="10" r="1.06"/>
<circle cx="0" cy="10" r="1.06"/>
<circle cx="2" cy="10" r="1.06"/>
<circle cx="4" cy="10" r="1.06"/>
<circle cx="6" cy="10" r="1.06"/>
<circle cx="8" cy="10" r="0.42"/>
<circle cx="-2" cy="12" r="0.76"/>
<circle cx="0" cy="12" r="1.06"/>
<circle cx="2" cy="12" r="1.06"/>
<circle cx="4" cy="12" r="1.06"/>
<circle cx="6" cy="12" r="0.83"/>
<circle cx="2" cy="14" r="0.48"/>
<circle cx="4" cy="14" r="0.26"/>
</g>
<g transform="rotate(15.0)" fill="#009fe3"
   style="mix-blend-mode: multiply; opacity: 0.9;">
<circle cx="-4" cy="-14" r="0.28"/>
<circle cx="-2" cy="-14" r="0.51"/>
<circle cx="-6" cy="-12" r="0.9"/>
<circle cx="-4" cy="-12" r="1.15"/>
<circle cx="-2" cy="-12" r="1.15"/>
<circle cx="0" cy="-12" r="1.15"/>
<circle cx="2" cy="-12" r="0.82"/>
<circle cx="-8" cy="-10" r="0.45"/>
<circle cx="-6" cy="-10" r="1.15"/>
<circle cx="-4" cy="-10" r="1.15"/>
<circle cx="-2" cy="-10" r="1.15"/>
<circle cx="0" cy="-10" r="1.15"/>
<circle cx="2" cy="-10" r="1.15"/>
<circle cx="4" cy="-10" r="0.34"/>
<circle cx="-8" cy="-8" r="0.79"/>
<circle cx="-6" cy="-8" r="1.15"/>
<circle cx="-4" cy="-8" r="1.15"/>
<circle cx="-2" cy="-8" r="1.15"/>
<circle cx="0" cy="-8" r="1.15"/>
<circle cx="2" cy="-8" r="1.15"/>
<circle cx="4" cy="-8" r="0.68"/>
<circle cx="-8" cy="-6" r="0.59"/>
<circle cx="-6" cy="-6" r="1.15"/>
<circle cx="-4" cy="-6" r="1.15"/>
<circle cx="-2" cy="-6" r="1.15"/>
<circle cx="0" cy="-6" r="1.15"/>
<circle cx="2" cy="-6" r="1.15"/>
<circle cx="4" cy="-6" r="0.48"/>
<circle cx="-6" cy="-4" r="1.15"/>
<circle cx="-4" cy="-4" r="1.15"/>
<circle cx="-2" cy="-4" r="1.15"/>
<circle cx="0" cy="-4" r="1.15"/>
<circle cx="2" cy="-4" r="1.13"/>
<circle cx="6" cy="-4" r="0.31"/>
<circle cx="8" cy="-4" r="0.43"/>
<circle cx="-4" cy="-2" r="0.7"/>
<circle cx="-2" cy="-2" r="0.96"/>
<circle cx="0" cy="-2" r="0.66"/>
<circle cx="4" cy="-2" r="0.72"/>
<circle cx="6" cy="-2" r="0.73"/>
<circle cx="8" cy="-2" r="0.73"/>
<circle cx="10" cy="-2" r="0.73"/>
<circle cx="12" cy="-2" r="0.52"/>
<circle cx="-6" cy="0" r="0.36"/>
<circle cx="-4" cy="0" r="0.29"/>
<circle cx="2" cy="0" r="0.42"/>
<circle cx="4" cy="0" r="0.73"/>
<circle cx="6" cy="0" r="0.73"/>
<circle cx="8" cy="0" r="0.73"/>
<circle cx="10" cy="0" r="0.73"/>
<circle cx="12" cy="0" r="0.73"/>
<circle cx="-10" cy="2" r="0.35"/>
<circle cx="-8" cy="2" r="0.41"/>
<circle cx="-6" cy="2" r="0.41"/>
<circle cx="-4" cy="2" r="0.41"/>
<circle cx="-2" cy="2" r="0.41"/>
<circle cx="2" cy="2" r="0.61"/>
<circle cx="4" cy="2" r="0.73"/>
<circle cx="6" cy="2" r="0.73"/>
<circle cx="8" cy="2" r="0.73"/>
<circle cx="10" cy="2" r="0.73"/>
<circle cx="12" cy="2" r="0.73"/>
<circle cx="14" cy="2" r="0.33"/>
<circle cx="-10" cy="4" r="0.41"/>
<circle cx="-8" cy="4" r="0.41"/>
<circle cx="-6" cy="4" r="0.41"/>
<circle cx="-4" cy="4" r="0.41"/>
<circle cx="-2" cy="4" r="0.41"/>
<circle cx="0" cy="4" r="0.29"/>
<circle cx="2" cy="4" r="0.45"/>
<circle cx="4" cy="4" r="0.73"/>
<circle cx="6" cy="4" r="0.73"/>
<circle cx="8" cy="4" r="0.73"/>
<circle cx="10" cy="4" r="0.73"/>
<circle cx="12" cy="4" r="0.73"/>
<circle cx="-10" cy="6" r="0.41"/>
<circle cx="-8" cy="6" r="0.41"/>
<circle cx="-6" cy="6" r="0.41"/>
<circle cx="-4" cy="6" r="0.41"/>
<circle cx="-2" cy="6" r="0.41"/>
<circle cx="0" cy="6" r="0.36"/>
<circle cx="4" cy="6" r="0.73"/>
<circle cx="6" cy="6" r="0.73"/>
<circle cx="8" cy="6" r="0.73"/>
<circle cx="10" cy="6" r="0.73"/>
<circle cx="12" cy="6" r="0.57"/>
<circle cx="-10" cy="8" r="0.41"/>
<circle cx="-8" cy="8" r="0.41"/>
<circle cx="-6" cy="8" r="0.41"/>
<circle cx="-4" cy="8" r="0.41"/>
<circle cx="-2" cy="8" r="0.41"/>
<circle cx="6" cy="8" r="0.38"/>
<circle cx="8" cy="8" r="0.5"/>
<circle cx="10" cy="8" r="0.29"/>
<circle cx="-8" cy="10" r="0.41"/>
<circle cx="-6" cy="10" r="0.41"/>
<circle cx="-4" cy="10" r="0.41"/>
<circle cx="-2" cy="10" r="0.35"/>
</g>
</svg>
